<svg width="104" height="146" viewBox="0 0 104 146" fill="none" xmlns="http://www.w3.org/2000/svg">
<path d="M0 12.3408C0 5.52518 5.52517 0 12.3408 0H61.7041C68.5198 0 74.0449 5.52518 74.0449 12.3408V12.3408H0V12.3408Z" fill="white"/>
<path d="M0 14.8089H78.9813C85.7969 14.8089 91.3221 20.3341 91.3221 27.1498V27.1498H0V14.8089Z" fill="white"/>
<path d="M0 29.618H86.0772C93.0633 29.618 98.7266 35.2813 98.7266 42.2674V42.2674H0V29.618Z" fill="white"/>
<path d="M0 44.4269H80.2154C87.031 44.4269 92.5562 49.9521 92.5562 56.7678V56.7678H0V44.4269Z" fill="white"/>
<path d="M0 59.236H61.7041C68.5198 59.236 74.0449 64.7612 74.0449 71.5768V71.5768H0V59.236Z" fill="white"/>
<path d="M0 74.0449H72.8109C79.6265 74.0449 85.1517 79.5701 85.1517 86.3858V86.3858H0V74.0449Z" fill="white"/>
<path d="M0 88.854H87.6199C94.4355 88.854 99.9607 94.3792 99.9607 101.195V101.195H0V88.854Z" fill="white"/>
<path d="M0 103.663H91.3221C98.1377 103.663 103.663 109.188 103.663 116.004V116.004H0V103.663Z" fill="white"/>
<path d="M0 118.472H86.0772C93.0633 118.472 98.7266 124.135 98.7266 131.121V131.121H0V118.472Z" fill="white"/>
<path d="M0 133.281H77.7472V133.281C77.7472 140.097 72.222 145.622 65.4064 145.622H12.3408C5.52515 145.622 0 140.097 0 133.281V133.281Z" fill="white"/>
</svg>
